<svg id="Layer_1" data-name="Layer 1" xmlns="http://www.w3.org/2000/svg" viewBox="0 0 400 620"><defs><style>.cls-1{fill:#a57c52;}.cls-2{fill:#f0e8e2;}.cls-3{fill:#8b6238;}.cls-4{fill:#80675c;}.cls-5{fill:#ebebeb;stroke:#988574;stroke-miterlimit:10;stroke-width:3px;}.cls-6{fill:#a1a0a0;}.cls-7{fill:#252525;}.cls-8{fill:#adadad;}.cls-9{fill:#f16623;}.cls-10{fill:#cf5927;}</style></defs><title>SparrowMarker10 [Converted]</title><path class="cls-1" d="M200,610,321.93,438.4c56.82-80-.37-190.76-98.48-190.76h-46.9c-98.11,0-155.3,110.77-98.48,190.76Z"/><circle class="cls-2" cx="200" cy="392.68" r="123.4"/><ellipse class="cls-3" cx="73.94" cy="433.44" rx="38.04" ry="145.81" transform="matrix(0.97, -0.26, 0.26, 0.97, -109.66, 33.91)"/><ellipse class="cls-1" cx="78.13" cy="457.96" rx="29.97" ry="114.46" transform="translate(-137.69 46.56) rotate(-18)"/><ellipse class="cls-3" cx="330.01" cy="433.44" rx="145.81" ry="38.04" transform="translate(-174.07 640.02) rotate(-75)"/><ellipse class="cls-1" cx="325.82" cy="457.96" rx="114.46" ry="29.97" transform="translate(-210.42 626.31) rotate(-72)"/><ellipse class="cls-1" cx="200" cy="182.84" rx="189.17" ry="172.88"/><path class="cls-4" d="M285.78,75.19a95.29,95.29,0,0,0-85.24,52.68,95.29,95.29,0,1,0,0,85.22,95.29,95.29,0,1,0,85.24-137.9Z"/><path class="cls-5" d="M280.74,85.29a90.23,90.23,0,0,0-80.2,48.83,90.25,90.25,0,1,0,0,82.81,90.25,90.25,0,1,0,80.2-131.64Z"/><circle class="cls-6" cx="148.5" cy="202.84" r="21.78"/><circle class="cls-7" cx="148.5" cy="202.84" r="17.07"/><circle class="cls-8" cx="148.5" cy="202.84" r="6.78"/><circle class="cls-6" cx="252.58" cy="202.84" r="21.78"/><circle class="cls-7" cx="252.58" cy="202.84" r="17.07"/><circle class="cls-8" cx="252.58" cy="202.84" r="6.78"/><rect class="cls-9" x="174.9" y="276.21" width="50.43" height="50.43" rx="10.76" transform="translate(271.76 -53.22) rotate(45)"/><path class="cls-10" d="M230.64,297.67c-4.18,5.38-8.65,10.46-13.23,15.44-2.27,2.51-4.63,4.93-6.95,7.39a20.13,20.13,0,0,1-2,1.91A12.63,12.63,0,0,1,205.9,324a13.19,13.19,0,0,1-5.76,1.21,13,13,0,0,1-8.11-3,9.84,9.84,0,0,1-1.06-1l-.9-.94c-2.31-2.47-4.66-4.89-6.95-7.39-4.6-4.95-9.14-10-13.52-15.15,5.23,4.32,10.31,8.8,15.32,13.34,2.52,2.26,5,4.58,7.47,6.87.3.27.63.61.91.83a9,9,0,0,0,.86.67,10.1,10.1,0,0,0,1.87,1,10.74,10.74,0,0,0,4.14.8,10.2,10.2,0,0,0,4.07-.88,10.53,10.53,0,0,0,1.81-1,14.4,14.4,0,0,0,1.7-1.5c2.47-2.32,4.89-4.67,7.41-6.93C220.15,306.29,225.25,301.83,230.64,297.67Z"/></svg>